<svg height="512pt" viewBox="-12 0 512 512.00101" width="512pt" xmlns="http://www.w3.org/2000/svg"><path d="m470.828125 145.589844h-75.625c-4.140625 0-7.5 3.355468-7.5 7.5 0 4.144531 3.359375 7.5 7.5 7.5h75.625c1.59375 0 2.886719 1.292968 2.886719 2.886718v108.890626h-458.714844v-108.890626c0-1.589843 1.296875-2.886718 2.890625-2.886718h342.789063c4.144531 0 7.5-3.355469 7.5-7.5 0-4.144532-3.355469-7.5-7.5-7.5h-342.789063c-9.863281 0-17.890625 8.023437-17.890625 17.886718v205.253907c0 4.144531 3.359375 7.5 7.5 7.5s7.5-3.355469 7.5-7.5v-81.363281h458.714844v175.300781c0 1.59375-1.292969 2.886719-2.886719 2.886719h-158.121094c-4.140625 0-7.5 3.359374-7.5 7.5 0 4.144531 3.359375 7.5 7.5 7.5h90.734375v13.945312c0 9.648438 7.851563 17.5 17.5 17.5h12.421875c9.648438 0 17.5-7.851562 17.5-17.5v-13.945312h19.964844c9.863281 0 17.886719-8.023438 17.886719-17.886719v-299.191407c0-9.863281-8.023438-17.886718-17.886719-17.886718zm-34.964844 348.910156c0 1.378906-1.121093 2.5-2.5 2.5h-12.421875c-1.378906 0-2.5-1.121094-2.5-2.5v-13.945312h17.421875zm0 0"/><path d="m278.183594 465.554688h-260.292969c-1.59375 0-2.890625-1.296876-2.890625-2.886719v-59.414063c0-4.144531-3.359375-7.5-7.5-7.5s-7.5 3.355469-7.5 7.5v59.414063c0 9.863281 8.027344 17.886719 17.890625 17.886719h19.960937v13.945312c0 9.648438 7.851563 17.5 17.5 17.5h12.421876c9.648437 0 17.5-7.851562 17.5-17.5v-13.945312h192.910156c4.144531 0 7.5-3.355469 7.5-7.5 0-4.144532-3.355469-7.5-7.5-7.5zm-207.910156 28.945312c0 1.378906-1.121094 2.5-2.5 2.5h-12.421876c-1.378906 0-2.5-1.121094-2.5-2.5v-13.945312h17.421876zm0 0"/><path d="m357.054688 177.792969h-47.441407c-4.144531 0-7.5 3.359375-7.5 7.5 0 4.144531 3.355469 7.5 7.5 7.5h47.441407c4.140624 0 7.5-3.355469 7.5-7.5 0-4.140625-3.359376-7.5-7.5-7.5zm0 0"/><path d="m357.054688 206.546875h-47.441407c-4.144531 0-7.5 3.355469-7.5 7.5s3.355469 7.5 7.5 7.5h47.441407c4.140624 0 7.5-3.355469 7.5-7.5s-3.359376-7.5-7.5-7.5zm0 0"/><path d="m357.054688 235.300781h-47.441407c-4.144531 0-7.5 3.355469-7.5 7.5 0 4.140625 3.355469 7.5 7.5 7.5h47.441407c4.140624 0 7.5-3.359375 7.5-7.5 0-4.144531-3.359376-7.5-7.5-7.5zm0 0"/><path d="m97.144531 177.792969h-47.441406c-4.140625 0-7.5 3.359375-7.5 7.5 0 4.144531 3.359375 7.5 7.5 7.5h47.441406c4.140625 0 7.5-3.355469 7.5-7.5 0-4.140625-3.359375-7.5-7.5-7.5zm0 0"/><path d="m97.144531 206.546875h-47.441406c-4.140625 0-7.5 3.355469-7.5 7.5s3.359375 7.5 7.5 7.5h47.441406c4.140625 0 7.5-3.355469 7.5-7.5s-3.359375-7.5-7.5-7.5zm0 0"/><path d="m97.144531 235.300781h-47.441406c-4.140625 0-7.5 3.355469-7.5 7.5 0 4.140625 3.359375 7.5 7.5 7.5h47.441406c4.140625 0 7.5-3.359375 7.5-7.5 0-4.144531-3.359375-7.5-7.5-7.5zm0 0"/><path d="m182.609375 177.792969h-47.4375c-4.144531 0-7.5 3.359375-7.5 7.5 0 4.144531 3.355469 7.5 7.5 7.5h47.4375c4.144531 0 7.5-3.355469 7.5-7.5 0-4.140625-3.355469-7.5-7.5-7.5zm0 0"/><path d="m182.609375 206.546875h-47.4375c-4.144531 0-7.5 3.355469-7.5 7.5s3.355469 7.5 7.5 7.5h47.4375c4.144531 0 7.5-3.355469 7.5-7.5s-3.355469-7.5-7.5-7.5zm0 0"/><path d="m182.609375 235.300781h-47.4375c-4.144531 0-7.5 3.355469-7.5 7.5 0 4.140625 3.355469 7.5 7.5 7.5h47.4375c4.144531 0 7.5-3.359375 7.5-7.5 0-4.144531-3.355469-7.5-7.5-7.5zm0 0"/><path d="m268.078125 177.792969h-47.441406c-4.140625 0-7.5 3.359375-7.5 7.5 0 4.144531 3.359375 7.5 7.5 7.5h47.441406c4.144531 0 7.5-3.355469 7.5-7.5 0-4.140625-3.355469-7.5-7.5-7.5zm0 0"/><path d="m268.078125 206.546875h-47.441406c-4.140625 0-7.5 3.355469-7.5 7.5s3.359375 7.5 7.5 7.5h47.441406c4.144531 0 7.5-3.355469 7.5-7.5s-3.355469-7.5-7.5-7.5zm0 0"/><path d="m268.078125 235.300781h-47.441406c-4.140625 0-7.5 3.355469-7.5 7.5 0 4.140625 3.359375 7.5 7.5 7.5h47.441406c4.144531 0 7.5-3.359375 7.5-7.5 0-4.144531-3.355469-7.5-7.5-7.5zm0 0"/><path d="m439.011719 177.792969h-47.4375c-4.144531 0-7.5 3.359375-7.5 7.5 0 4.144531 3.355469 7.5 7.5 7.5h47.4375c4.144531 0 7.5-3.355469 7.5-7.5 0-4.140625-3.355469-7.5-7.5-7.5zm0 0"/><path d="m439.011719 206.546875h-47.4375c-4.144531 0-7.5 3.355469-7.5 7.5s3.355469 7.5 7.5 7.5h47.4375c4.144531 0 7.5-3.355469 7.5-7.5s-3.355469-7.5-7.5-7.5zm0 0"/><path d="m439.011719 235.300781h-47.4375c-4.144531 0-7.5 3.355469-7.5 7.5 0 4.140625 3.355469 7.5 7.5 7.5h47.4375c4.144531 0 7.5-3.359375 7.5-7.5 0-4.144531-3.355469-7.5-7.5-7.5zm0 0"/><path d="m52.085938 313.953125c0-4.144531-3.359376-7.5-7.5-7.5h-.097657c-4.140625 0-7.453125 3.355469-7.453125 7.5 0 4.140625 3.40625 7.5 7.550782 7.5 4.140624 0 7.5-3.359375 7.5-7.5zm0 0"/><path d="m77.207031 313.890625c0-4.144531-3.359375-7.5-7.5-7.5h-.09375c-4.144531 0-7.453125 3.355469-7.453125 7.5 0 4.140625 3.40625 7.5 7.546875 7.5s7.5-3.359375 7.5-7.5zm0 0"/><path d="m102.328125 313.828125c0-4.144531-3.355469-7.5-7.5-7.5h-.097656c-4.140625 0-7.449219 3.355469-7.449219 7.5s3.40625 7.5 7.546875 7.5 7.5-3.359375 7.5-7.5zm0 0"/><path d="m45.527344 92.460938c0 7.945312 2.863281 15.699218 8.0625 21.839843 1.484375 1.75 3.597656 2.652344 5.726562 2.652344 1.714844 0 3.4375-.585937 4.84375-1.777344 3.164063-2.679687 3.554688-7.410156.875-10.570312-2.949218-3.480469-4.507812-7.683594-4.507812-12.144531 0-4.464844 1.558594-8.664063 4.507812-12.144532 5.199219-6.136718 8.0625-13.894531 8.0625-21.839844 0-7.945312-2.863281-15.703124-8.0625-21.839843-2.949218-3.480469-4.507812-7.679688-4.507812-12.144531 0-4.464844 1.558594-8.664063 4.507812-12.144532 2.679688-3.160156 2.289063-7.894531-.875-10.570312-3.160156-2.679688-7.890625-2.285156-10.570312.875-5.199219 6.136718-8.058594 13.894531-8.058594 21.839844 0 7.945312 2.859375 15.703124 8.058594 21.839843 2.949218 3.480469 4.507812 7.679688 4.507812 12.144531 0 4.464844-1.558594 8.664063-4.503906 12.144532-5.203125 6.136718-8.066406 13.894531-8.066406 21.839844zm0 0"/><path d="m86.648438 92.460938c0 7.945312 2.863281 15.699218 8.0625 21.839843 1.484374 1.75 3.597656 2.652344 5.726562 2.652344 1.714844 0 3.4375-.585937 4.847656-1.777344 3.160156-2.679687 3.550782-7.410156.875-10.570312-2.949218-3.480469-4.511718-7.683594-4.511718-12.144531 0-4.464844 1.5625-8.664063 4.511718-12.144532 5.195313-6.136718 8.0625-13.894531 8.0625-21.839844 0-7.945312-2.863281-15.703124-8.0625-21.839843-2.949218-3.480469-4.511718-7.679688-4.511718-12.144531 0-4.464844 1.5625-8.664063 4.511718-12.144532 2.675782-3.160156 2.285156-7.894531-.875-10.570312-3.160156-2.679688-7.894531-2.285156-10.570312.875-5.199219 6.136718-8.066406 13.894531-8.066406 21.839844 0 7.945312 2.863281 15.703124 8.066406 21.839843 2.949218 3.480469 4.507812 7.679688 4.507812 12.144531 0 4.464844-1.558594 8.664063-4.507812 12.144532-5.203125 6.136718-8.066406 13.894531-8.066406 21.839844zm0 0"/><path d="m127.769531 92.460938c0 7.945312 2.863281 15.699218 8.0625 21.839843 1.484375 1.75 3.597657 2.652344 5.726563 2.652344 1.710937 0 3.4375-.585937 4.84375-1.777344 3.160156-2.679687 3.554687-7.410156.875-10.570312-2.949219-3.480469-4.507813-7.683594-4.507813-12.144531 0-4.464844 1.558594-8.664063 4.507813-12.144532 5.199218-6.136718 8.0625-13.894531 8.0625-21.839844 0-7.945312-2.863282-15.703124-8.0625-21.839843-2.949219-3.480469-4.507813-7.679688-4.507813-12.144531 0-4.464844 1.558594-8.664063 4.507813-12.144532 2.679687-3.160156 2.285156-7.894531-.875-10.570312-3.160156-2.679688-7.894532-2.285156-10.570313.875-5.199219 6.136718-8.0625 13.894531-8.0625 21.839844 0 7.945312 2.863281 15.703124 8.0625 21.839843 2.949219 3.480469 4.507813 7.679688 4.507813 12.144531 0 4.464844-1.558594 8.664063-4.507813 12.144532-5.199219 6.136718-8.0625 13.894531-8.0625 21.839844zm0 0"/><path d="m168.890625 92.460938c0 7.945312 2.863281 15.699218 8.066406 21.839843 1.480469 1.75 3.597657 2.652344 5.726563 2.652344 1.710937 0 3.433594-.585937 4.84375-1.777344 3.160156-2.679687 3.550781-7.410156.875-10.570312-2.949219-3.480469-4.507813-7.683594-4.507813-12.144531 0-4.464844 1.558594-8.664063 4.507813-12.144532 5.199218-6.136718 8.0625-13.894531 8.0625-21.839844 0-7.945312-2.863282-15.703124-8.0625-21.839843-2.949219-3.480469-4.507813-7.679688-4.507813-12.144531 0-4.464844 1.558594-8.664063 4.507813-12.144532 2.675781-3.160156 2.285156-7.894531-.875-10.570312-3.164063-2.679688-7.894532-2.285156-10.570313.875-5.199219 6.136718-8.0625 13.894531-8.0625 21.839844 0 7.945312 2.863281 15.703124 8.0625 21.839843 2.945313 3.480469 4.507813 7.679688 4.507813 12.144531 0 4.464844-1.5625 8.664063-4.507813 12.144532-5.203125 6.136718-8.066406 13.894531-8.066406 21.839844zm0 0"/><path d="m210.011719 92.460938c0 7.945312 2.863281 15.699218 8.0625 21.839843 1.484375 1.75 3.601562 2.652344 5.730469 2.652344 1.710937 0 3.433593-.585937 4.84375-1.777344 3.160156-2.679687 3.550781-7.410156.875-10.570312-2.949219-3.480469-4.507813-7.683594-4.507813-12.144531 0-4.464844 1.558594-8.664063 4.507813-12.144532 5.199218-6.136718 8.0625-13.894531 8.0625-21.839844 0-7.945312-2.863282-15.703124-8.0625-21.839843-2.949219-3.480469-4.507813-7.679688-4.507813-12.144531 0-4.464844 1.558594-8.664063 4.507813-12.144532 2.675781-3.160156 2.285156-7.894531-.875-10.570312-3.164063-2.679688-7.894532-2.285156-10.570313.875-5.199219 6.136718-8.0625 13.894531-8.0625 21.839844 0 7.945312 2.863281 15.703124 8.0625 21.839843 2.949219 3.480469 4.507813 7.679688 4.507813 12.144531 0 4.464844-1.558594 8.664063-4.507813 12.144532-5.203125 6.136718-8.066406 13.894531-8.066406 21.839844zm0 0"/><path d="m251.132812 92.460938c0 7.945312 2.863282 15.699218 8.0625 21.839843 1.484376 1.75 3.601563 2.652344 5.730469 2.652344 1.710938 0 3.433594-.585937 4.84375-1.777344 3.160157-2.679687 3.550781-7.410156.875-10.570312-2.949219-3.480469-4.507812-7.683594-4.507812-12.144531 0-4.464844 1.558593-8.664063 4.507812-12.144532 5.199219-6.136718 8.0625-13.894531 8.0625-21.839844 0-7.945312-2.863281-15.703124-8.0625-21.839843-2.949219-3.480469-4.507812-7.679688-4.507812-12.144531 0-4.464844 1.558593-8.664063 4.507812-12.144532 2.675781-3.160156 2.285157-7.894531-.875-10.570312-3.164062-2.679688-7.894531-2.285156-10.570312.875-5.199219 6.136718-8.0625 13.894531-8.0625 21.839844 0 7.945312 2.859375 15.703124 8.0625 21.839843 2.949219 3.480469 4.507812 7.679688 4.507812 12.144531 0 4.464844-1.558593 8.664063-4.507812 12.144532-5.203125 6.136718-8.066407 13.894531-8.066407 21.839844zm0 0"/><path d="m292.253906 92.460938c0 7.945312 2.863282 15.699218 8.0625 21.839843 1.484375 1.75 3.597656 2.652344 5.726563 2.652344 1.714843 0 3.4375-.585937 4.847656-1.777344 3.160156-2.679687 3.550781-7.410156.875-10.570312-2.949219-3.480469-4.507813-7.683594-4.507813-12.144531 0-4.464844 1.558594-8.664063 4.507813-12.144532 5.195313-6.136718 8.0625-13.894531 8.0625-21.839844 0-7.945312-2.863281-15.703124-8.0625-21.839843-2.949219-3.480469-4.507813-7.679688-4.507813-12.144531 0-4.464844 1.558594-8.664063 4.507813-12.144532 2.675781-3.160156 2.285156-7.894531-.875-10.570312-3.160156-2.679688-7.894531-2.285156-10.570313.875-5.199218 6.136718-8.0625 13.894531-8.0625 21.839844 0 7.945312 2.859376 15.703124 8.0625 21.839843 2.949219 3.480469 4.507813 7.679688 4.507813 12.144531 0 4.464844-1.558594 8.664063-4.507813 12.144532-5.203124 6.136718-8.066406 13.894531-8.066406 21.839844zm0 0"/><path d="m333.375 92.460938c0 7.945312 2.863281 15.699218 8.0625 21.835937 1.484375 1.753906 3.597656 2.65625 5.726562 2.65625 1.714844 0 3.4375-.585937 4.84375-1.777344 3.160157-2.675781 3.554688-7.410156.878907-10.570312-2.949219-3.484375-4.511719-7.683594-4.511719-12.144531 0-4.464844 1.5625-8.660157 4.511719-12.144532 5.195312-6.136718 8.0625-13.894531 8.0625-21.839844 0-7.945312-2.863281-15.703124-8.0625-21.839843-2.949219-3.480469-4.511719-7.683594-4.511719-12.144531 0-4.460938 1.5625-8.660157 4.511719-12.144532 2.675781-3.160156 2.28125-7.894531-.878907-10.570312-3.160156-2.675782-7.894531-2.285156-10.570312.875-5.195312 6.140625-8.0625 13.898437-8.0625 21.839844 0 7.945312 2.863281 15.699218 8.066406 21.839843 2.949219 3.480469 4.507813 7.679688 4.507813 12.144531 0 4.464844-1.558594 8.664063-4.511719 12.144532-5.199219 6.140625-8.0625 13.894531-8.0625 21.839844zm0 0"/><path d="m374.496094 92.460938c0 7.945312 2.863281 15.699218 8.0625 21.835937 1.484375 1.753906 3.597656 2.65625 5.726562 2.65625 1.714844 0 3.4375-.585937 4.84375-1.777344 3.160156-2.675781 3.554688-7.410156.878906-10.570312-2.949218-3.480469-4.507812-7.683594-4.507812-12.144531 0-4.464844 1.558594-8.664063 4.503906-12.144532 5.199219-6.136718 8.066406-13.894531 8.066406-21.839844 0-7.945312-2.863281-15.703124-8.0625-21.839843-2.949218-3.480469-4.507812-7.679688-4.507812-12.144531 0-4.464844 1.558594-8.664063 4.507812-12.144532 2.675782-3.160156 2.28125-7.894531-.878906-10.570312-3.160156-2.675782-7.890625-2.285156-10.570312.875-5.195313 6.140625-8.058594 13.894531-8.058594 21.839844 0 7.945312 2.859375 15.699218 8.0625 21.839843 2.945312 3.480469 4.507812 7.679688 4.507812 12.144531 0 4.464844-1.5625 8.664063-4.511718 12.144532-5.199219 6.136718-8.0625 13.894531-8.0625 21.839844zm0 0"/><path d="m415.617188 92.460938c0 7.945312 2.863281 15.699218 8.066406 21.839843 1.480468 1.75 3.597656 2.652344 5.726562 2.652344 1.710938 0 3.433594-.585937 4.84375-1.777344 3.160156-2.679687 3.550782-7.410156.875-10.570312-2.949218-3.480469-4.507812-7.683594-4.507812-12.144531 0-4.464844 1.558594-8.664063 4.507812-12.144532 5.199219-6.140625 8.0625-13.894531 8.0625-21.839844 0-7.945312-2.863281-15.699218-8.0625-21.839843-2.949218-3.480469-4.507812-7.679688-4.507812-12.144531 0-4.464844 1.558594-8.664063 4.507812-12.144532 2.675782-3.160156 2.285156-7.894531-.875-10.570312-3.164062-2.679688-7.894531-2.285156-10.570312.875-5.199219 6.136718-8.0625 13.894531-8.0625 21.839844 0 7.945312 2.863281 15.703124 8.0625 21.839843 2.945312 3.480469 4.507812 7.679688 4.507812 12.144531 0 4.464844-1.5625 8.664063-4.507812 12.144532-5.203125 6.136718-8.066406 13.894531-8.066406 21.839844zm0 0"/><path d="m437.265625 426.425781v-103.394531c0-12.117188-9.855469-21.976562-21.972656-21.976562-12.117188 0-21.972657 9.859374-21.972657 21.976562v103.394531c0 12.117188 9.855469 21.972657 21.972657 21.972657 12.117187 0 21.972656-9.855469 21.972656-21.972657zm-28.945313 0v-103.394531c0-3.847656 3.128907-6.976562 6.972657-6.976562s6.972656 3.128906 6.972656 6.976562v103.394531c0 3.84375-3.128906 6.972657-6.972656 6.972657s-6.972657-3.128907-6.972657-6.972657zm0 0"/><path d="m379.972656 426.425781v-103.394531c0-12.117188-9.859375-21.976562-21.976562-21.976562-12.117188 0-21.972656 9.859374-21.972656 21.976562v103.394531c0 12.117188 9.855468 21.972657 21.972656 21.972657 12.117187 0 21.976562-9.855469 21.976562-21.972657zm-28.949218 0v-103.394531c0-3.847656 3.128906-6.976562 6.972656-6.976562 3.847656 0 6.976562 3.128906 6.976562 6.976562v103.394531c0 3.84375-3.128906 6.972657-6.976562 6.972657-3.84375 0-6.972656-3.128907-6.972656-6.972657zm0 0"/></svg>