<?xml version="1.0" encoding="windows-1252"?>
<!-- Generator: Adobe Illustrator 21.0.2, SVG Export Plug-In . SVG Version: 6.00 Build 0)  -->
<svg version="1.1" id="Layer_1" xmlns="http://www.w3.org/2000/svg" xmlns:xlink="http://www.w3.org/1999/xlink" x="0px" y="0px" viewBox="0 0 40 40" style="enable-background:new 0 0 40 40;" xml:space="preserve">
<path style="fill:#704E34;" d="M31,19h-3v-2c0-0.552,0.448-1,1-1h1c0.552,0,1,0.448,1,1V19z"/>
<path style="fill:#704E34;" d="M12,19H9v-2c0-0.552,0.448-1,1-1h1c0.552,0,1,0.448,1,1V19z"/>
<g>
	<g>
		<path style="fill:#704E34;" d="M23,16v6h-6v-6H23 M23,15h-6c-0.552,0-1,0.448-1,1v6c0,0.552,0.448,1,1,1h6c0.552,0,1-0.448,1-1v-6    C24,15.448,23.552,15,23,15L23,15z"/>
	</g>
</g>
<g>
	<g>
		<path style="fill:#F5CE85;" d="M14,11.5c-3.033,0-5.5-2.467-5.5-5.5s2.467-5.5,5.5-5.5c1.952,0,3.775,1.054,4.758,2.75l0.145,0.25    h2.89L23,4.707L24.207,3.5h1.586L27,4.707L28.207,3.5h1.586L31.5,5.207v1.586L29.793,8.5h-10.89l-0.145,0.25    C17.775,10.446,15.952,11.5,14,11.5z M12,4.5c-0.827,0-1.5,0.673-1.5,1.5s0.673,1.5,1.5,1.5s1.5-0.673,1.5-1.5S12.827,4.5,12,4.5z    "/>
	</g>
	<g>
		<path style="fill:#967A44;" d="M14,1c1.774,0,3.432,0.958,4.325,2.501L18.614,4h0.576h2.395l0.707,0.707L23,5.414l0.707-0.707    L24.414,4h1.172l0.707,0.707L27,5.414l0.707-0.707L28.414,4h1.172L31,5.414v1.172L29.586,8H19.191h-0.576l-0.289,0.499    C17.432,10.042,15.774,11,14,11c-2.757,0-5-2.243-5-5S11.243,1,14,1 M12,8c1.103,0,2-0.897,2-2s-0.897-2-2-2s-2,0.897-2,2    S10.897,8,12,8 M14,0c-3.314,0-6,2.686-6,6s2.686,6,6,6c2.22,0,4.153-1.208,5.191-3H30l2-2V5l-2-2h-2l-1,1l-1-1h-2l-1,1l-1-1    h-2.809C18.153,1.208,16.22,0,14,0L14,0z M12,7c-0.552,0-1-0.448-1-1c0-0.552,0.448-1,1-1s1,0.448,1,1C13,6.552,12.552,7,12,7    L12,7z"/>
	</g>
</g>
<g>
	<path style="fill:#FFC49C;" d="M6,38.5c-0.827,0-1.5-0.673-1.5-1.5V19c0-0.827,0.673-1.5,1.5-1.5h28c0.827,0,1.5,0.673,1.5,1.5v18   c0,0.827-0.673,1.5-1.5,1.5H6z"/>
	<path style="fill:#A16A4A;" d="M34,18c0.551,0,1,0.449,1,1v18c0,0.551-0.449,1-1,1H6c-0.551,0-1-0.449-1-1V19c0-0.551,0.449-1,1-1   H34 M34,17H6c-1.105,0-2,0.895-2,2v18c0,1.105,0.895,2,2,2h28c1.105,0,2-0.895,2-2V19C36,17.895,35.105,17,34,17L34,17z"/>
</g>
<line style="fill:none;stroke:#A16A4A;stroke-miterlimit:10;" x1="10.5" y1="17.5" x2="10.5" y2="38.5"/>
<line style="fill:none;stroke:#A16A4A;stroke-miterlimit:10;" x1="29.5" y1="17.5" x2="29.5" y2="38.5"/>
</svg>