<svg width="100%" height="100%" viewBox="0 0 20 20" fill="none" xmlns="http://www.w3.org/2000/svg">
                                    <path d="M11.7487 1.2767L11.1223 2.5296C11.1069 2.56023 11.0821 2.58508 11.0515 2.6004L9.79861 3.22685C9.68184 3.2852 9.68184 3.45174 9.79861 3.51008L11.0515 4.13653C11.0821 4.15186 11.1069 4.1767 11.1223 4.20734L11.7487 5.46024C11.8071 5.57694 11.9736 5.57694 12.032 5.46024L12.6584 4.20734C12.6737 4.1767 12.6986 4.15185 12.7292 4.13653L13.9821 3.51008C14.0988 3.45174 14.0988 3.2852 13.9821 3.22685L12.7292 2.6004C12.6986 2.58508 12.6737 2.56023 12.6584 2.5296L12.032 1.2767C11.9736 1.16 11.8071 1.16 11.7487 1.2767Z" fill="white"></path>
                                    <path d="M15.4442 4.41304L14.8278 6.26231C14.8121 6.30959 14.775 6.3467 14.7277 6.36245L12.8784 6.97888C12.734 7.02699 12.734 7.23118 12.8784 7.2793L14.7277 7.89572C14.775 7.91147 14.8121 7.94858 14.8278 7.99586L15.4442 9.84512C15.4924 9.98944 15.6965 9.98944 15.7447 9.84512L16.3611 7.99586C16.3769 7.94858 16.4139 7.91147 16.4612 7.89572L18.3105 7.2793C18.4549 7.23118 18.4549 7.02699 18.3105 6.97888L16.4612 6.36245C16.4139 6.3467 16.3769 6.30959 16.3611 6.26231L15.7447 4.41304C15.6965 4.26869 15.4924 4.26869 15.4442 4.41304Z" fill="white"></path>
                                    <path fill-rule="evenodd" clip-rule="evenodd" d="M8.45032 11.215C10.6886 13.4533 14.1853 13.6471 16.5701 11.774C16.5997 11.7508 16.629 11.7273 16.6582 11.7035C16.7686 11.6134 16.8764 11.5188 16.9815 11.4196C17.0242 11.3794 17.0663 11.3384 17.1081 11.2967C17.5135 10.8912 18.3453 11.1308 18.2228 11.6909C18.1805 11.8844 18.1316 12.0759 18.0764 12.265C18.0436 12.3771 18.0086 12.4884 17.9714 12.5988C17.9612 12.6289 17.9509 12.6591 17.9404 12.6891C16.7551 16.0838 13.502 18.6061 9.71105 18.6061C4.90157 18.6061 1.00272 14.7072 1.00272 9.89775C1.00272 6.04459 3.60798 2.75872 7.07392 1.61867L7.11635 1.60483C7.19236 1.58027 7.26878 1.55673 7.34559 1.53424C7.54947 1.47454 7.75611 1.42223 7.96516 1.3776C8.55355 1.25199 8.79414 2.13184 8.36862 2.55729C8.32642 2.59951 8.28502 2.64219 8.24433 2.68534C8.16382 2.77074 8.08628 2.85796 8.01174 2.94686C7.9954 2.96635 7.9792 2.98592 7.96314 3.00557C6.0137 5.39169 6.18383 8.94846 8.45032 11.215ZM7.33075 12.3346C9.49318 14.497 12.6184 15.1462 15.3217 14.2274C14.0083 15.9161 11.9673 17.0227 9.71105 17.0227C5.77602 17.0227 2.58605 13.8328 2.58605 9.89775C2.58605 7.59505 3.73914 5.52087 5.48401 4.21212C4.49847 6.94515 5.13316 10.137 7.33075 12.3346Z" fill="white"></path>
                                    </svg>