<svg width="100%" height="100%" viewBox="0 0 26 24" fill="none" xmlns="http://www.w3.org/2000/svg">
                                    <path d="M14.3911 19.1887H13.468V18.3548C13.468 17.9218 13.1157 17.5695 12.6827 17.5695H11.1694C10.7363 17.5695 10.3841 17.9218 10.3841 18.3548V19.1887H9.461C9.13209 19.1887 8.86547 19.4553 8.86547 19.7842V23.1391C8.86547 23.468 9.13209 23.7346 9.461 23.7346H14.3912C14.7201 23.7346 14.9867 23.468 14.9867 23.1391V19.7842C14.9866 19.4553 14.72 19.1887 14.3911 19.1887ZM12.6736 19.1887H11.1783V18.3638H12.6736V19.1887Z" fill="white"/>
                                    <path d="M14.726 6.09814L13.6815 5.77817C13.4813 5.71684 13.2694 5.82941 13.2081 6.02958L12.8878 7.07507C12.9554 7.06748 13.0234 7.06316 13.091 7.06316C13.7037 7.06322 14.2551 7.36877 14.5867 7.84691L14.9774 6.57156C15.0387 6.37144 14.9261 6.15947 14.726 6.09814Z" fill="white"/>
                                    <path d="M21.7698 3.03752C21.3656 2.79882 20.9907 2.50171 20.0154 2.50171C19.0596 2.50171 18.6761 2.79269 18.2867 3.01486C18.2152 4.03649 19.024 4.88428 20.0274 4.88428C21.0246 4.88423 21.8274 4.0476 21.7698 3.03752Z" fill="white"/>
                                    <path d="M24.2741 7.4238C24.2686 6.33034 23.3745 5.44066 22.281 5.44066H21.4177C20.5591 7.68379 20.8692 6.87383 20.3737 8.16826L20.6199 7.00865C20.6372 6.92718 20.6246 6.84224 20.5845 6.76935L20.2464 6.15453L20.547 5.60798C20.5677 5.57005 20.5671 5.52399 20.545 5.48677C20.523 5.4495 20.483 5.4267 20.4398 5.4267H19.6149C19.5717 5.4267 19.5316 5.44955 19.5096 5.48677C19.4877 5.52399 19.4869 5.57005 19.5077 5.60798L19.8083 6.15453L19.469 6.77161C19.3898 6.91562 19.4129 6.98434 19.6479 8.16826C19.1202 6.81476 19.326 7.32565 18.6146 5.44066H17.7595C16.666 5.44066 15.7719 6.33029 15.7663 7.4238L15.7515 10.3737H17.436L17.4508 7.43239C17.4513 7.34273 17.5242 7.2704 17.6138 7.2706C17.7035 7.2708 17.776 7.34358 17.776 7.43324V10.3739H22.2371V7.43139C22.2371 7.33404 22.316 7.25518 22.4134 7.25513C22.5107 7.25513 22.5896 7.33399 22.5896 7.43134C22.5896 7.43169 22.5896 7.43199 22.5896 7.43234L22.6044 10.3739H24.2889L24.2741 7.4238ZM20.0167 9.66804C19.854 9.66804 19.7169 9.53593 19.7169 9.36826C19.7169 9.20135 19.8534 9.06849 20.0167 9.06849C20.1745 9.06849 20.3164 9.19824 20.3164 9.36826C20.3164 9.5393 20.1737 9.66804 20.0167 9.66804Z" fill="white"/>
                                    <path d="M25.035 11.4256H8.17649V13.1787H25.035C25.5191 13.1787 25.9115 12.7863 25.9115 12.3022C25.9115 11.818 25.5191 11.4256 25.035 11.4256Z" fill="white"/>
                                    <path d="M13.9904 8.71933C13.8991 8.2223 13.4219 7.89289 12.9246 7.98426L10.2773 8.47054L8.82563 5.91206C8.5351 5.40002 7.98894 5.08191 7.40014 5.08191C6.90673 5.08191 2.89163 5.08191 2.39379 5.08191C1.20519 5.08191 0.233289 6.04889 0.227362 7.23744L0.193657 13.963C0.191096 14.4686 0.598915 14.8805 1.10453 14.8831C1.10609 14.8831 1.1077 14.8831 1.10925 14.8831C1.61266 14.8831 2.02209 14.4763 2.0246 13.9723L2.05841 7.24658V7.24648C2.05896 7.14632 2.14043 7.06555 2.24054 7.06585C2.3407 7.06615 2.42162 7.14743 2.42167 7.24749C2.42172 9.53442 2.42207 22.636 2.42207 22.636C2.42207 23.2427 2.91393 23.7346 3.52066 23.7346C4.12734 23.7346 4.61924 23.2428 4.61924 22.636V13.8551H5.09357V22.6361C5.09357 23.2428 5.58542 23.7347 6.19215 23.7347C6.79889 23.7347 7.29074 23.2428 7.29074 22.6361C7.29069 8.2101 7.27095 16.2559 7.2707 7.08489C7.2707 7.06415 7.28466 7.04596 7.30471 7.04064C7.3248 7.03531 7.34594 7.04405 7.35624 7.06209L9.0061 9.94028C9.19899 10.2802 9.58556 10.4592 9.96776 10.3889L13.2554 9.78507C13.7527 9.6937 14.0817 9.21661 13.9904 8.71933Z" fill="white"/>
                                    <path d="M4.85611 0.682312C3.80821 0.682312 2.95877 1.53181 2.95877 2.57966C2.95877 3.62681 3.80911 4.47701 4.85611 4.47701C5.90512 4.47701 6.75346 3.62656 6.75346 2.57966C6.75346 1.53783 5.91005 0.682312 4.85611 0.682312Z" fill="white"/>
                                    <path d="M21.4643 0.0603638H18.5905C18.4626 0.0603638 18.3589 0.164089 18.3589 0.291975V2.21147C18.7575 1.98413 19.3515 1.83967 20.0155 1.83967C20.6927 1.83967 21.2974 1.98986 21.6959 2.22509V0.291975C21.6959 0.163989 21.5921 0.0603638 21.4643 0.0603638Z" fill="white"/>
                                    </svg>