<svg width="100%" height="100%" viewBox="0 0 29 26" fill="none" xmlns="http://www.w3.org/2000/svg">
<g clip-path="url(#clip0_2_774)">
<ellipse cx="14.1579" cy="12.9427" rx="14.0753" ry="13" transform="rotate(-180 14.1579 12.9427)" fill="#D9D9D9"/>
<path d="M20.2888 12.2035L14.2936 8.09124C14.1674 8.00477 13.9968 7.98934 13.8537 8.05184C13.7106 8.11429 13.6199 8.24349 13.6199 8.38504L13.6199 10.0816L10.7179 8.0912C10.5354 7.96585 10.2727 7.99578 10.1315 8.15809C9.99036 8.32035 10.0241 8.55355 10.2068 8.67894L13.7824 11.1315C13.9086 11.218 14.0791 11.2334 14.2223 11.1709C14.3654 11.1085 14.456 10.9792 14.456 10.8377L14.456 9.1411L19.3492 12.4974L14.456 15.8538L14.456 14.1572C14.456 14.0156 14.3653 13.8864 14.2223 13.824C14.0793 13.7616 13.9086 13.7768 13.7824 13.8634L10.8805 15.8537L10.8805 11.1608C10.8805 10.9557 10.6933 10.7895 10.4624 10.7895C10.2315 10.7895 10.0443 10.9557 10.0443 11.1608L10.0443 16.6096C10.0443 16.7513 10.135 16.8805 10.278 16.9429C10.421 17.0053 10.5917 16.99 10.7179 16.9035L13.6199 14.9131L13.6199 16.6097C13.6199 16.7513 13.7106 16.8805 13.8536 16.9429C13.9121 16.9684 13.9751 16.9809 14.0379 16.9809C14.1287 16.9809 14.2189 16.9547 14.2936 16.9035L20.2888 12.7913C20.3913 12.721 20.4513 12.6125 20.4513 12.4974C20.4513 12.3824 20.3913 12.2738 20.2888 12.2035Z" fill="#3A5495"/>
<path d="M24.1107 4.10387C21.4522 1.74294 17.9176 0.442691 14.1579 0.44269C13.927 0.44269 13.7398 0.608901 13.7398 0.813979C13.7398 1.01906 13.927 1.18527 14.1579 1.18527C21.458 1.18527 27.3971 6.45964 27.3971 12.9427C27.3971 19.4257 21.458 24.7001 14.1579 24.7001C6.85782 24.7001 0.91874 19.4257 0.918741 12.9427C0.918742 7.86412 4.56277 3.37848 9.98645 1.78068C10.2057 1.71613 10.3244 1.50602 10.2516 1.31144C10.1789 1.11681 9.94247 1.0112 9.72326 1.07594C6.93953 1.89596 4.5465 3.44484 2.80286 5.55499C1.02321 7.70861 0.0825787 10.2633 0.0825782 12.9427C0.0825776 16.2816 1.54669 19.4206 4.20517 21.7816C6.86359 24.1424 10.3983 25.4427 14.1579 25.4427C17.9176 25.4427 21.4522 24.1424 24.1107 21.7816C26.7692 19.4206 28.2333 16.2816 28.2333 12.9427C28.2333 9.60383 26.7692 6.46476 24.1107 4.10387Z" fill="#3A5495"/>
<path d="M22.8274 5.24348C20.5117 3.18689 17.4328 2.05432 14.1579 2.05432C10.883 2.05432 7.80406 3.18689 5.48833 5.24348C3.17261 7.30002 1.89731 10.0344 1.89731 12.9427C1.89731 15.8511 3.17261 18.5854 5.48833 20.642C7.80405 22.6985 10.8829 23.8311 14.1579 23.8311C17.4328 23.8311 20.5117 22.6985 22.8274 20.642C25.1432 18.5854 26.4185 15.8512 26.4185 12.9427C26.4185 10.0344 25.1432 7.30003 22.8274 5.24348ZM14.1579 23.0885C7.85849 23.0885 2.73347 18.5371 2.73347 12.9427C2.73347 7.34827 7.85849 2.7969 14.1579 2.7969C20.4573 2.7969 25.5824 7.34832 25.5824 12.9427C25.5824 18.5371 20.4573 23.0885 14.1579 23.0885Z" fill="#3A5495"/>
</g>
<defs>
<clipPath id="clip0_2_774">
<rect width="28.1507" height="25" fill="white" transform="translate(0.0825806 0.442688)"/>
</clipPath>
</defs>
</svg>
